<mxfile host="app.diagrams.net" modified="2021-08-10T04:18:53.913Z" agent="5.0 (Windows NT 10.0; Win64; x64) AppleWebKit/537.36 (KHTML, like Gecko) Chrome/92.0.4515.131 Safari/537.36 Edg/92.0.902.67" etag="M33JKCBUNmVi_HP531a1" version="14.9.5" type="github">
  <diagram id="ASO_68noZXRDcvbRKMAF" name="Page-1">
    <mxGraphModel dx="1422" dy="793" grid="1" gridSize="10" guides="1" tooltips="1" connect="1" arrows="1" fold="1" page="1" pageScale="1" pageWidth="827" pageHeight="1169" math="0" shadow="0">
      <root>
        <mxCell id="0" />
        <mxCell id="1" parent="0" />
        <mxCell id="5YFI_IbYlx-bdkyp-mBO-24" style="edgeStyle=orthogonalEdgeStyle;rounded=0;orthogonalLoop=1;jettySize=auto;html=1;exitX=1;exitY=0.75;exitDx=0;exitDy=0;entryX=0;entryY=0.75;entryDx=0;entryDy=0;fontSize=15;" edge="1" parent="1" source="5YFI_IbYlx-bdkyp-mBO-9" target="5YFI_IbYlx-bdkyp-mBO-21">
          <mxGeometry relative="1" as="geometry" />
        </mxCell>
        <mxCell id="5YFI_IbYlx-bdkyp-mBO-9" value="" style="rounded=0;whiteSpace=wrap;html=1;fontSize=15;" vertex="1" parent="1">
          <mxGeometry x="294" y="40" width="176" height="280" as="geometry" />
        </mxCell>
        <mxCell id="5YFI_IbYlx-bdkyp-mBO-20" style="edgeStyle=orthogonalEdgeStyle;rounded=0;orthogonalLoop=1;jettySize=auto;html=1;exitX=1;exitY=0;exitDx=0;exitDy=52.5;exitPerimeter=0;entryX=0;entryY=0.5;entryDx=0;entryDy=0;fontSize=15;" edge="1" parent="1" source="5YFI_IbYlx-bdkyp-mBO-3" target="5YFI_IbYlx-bdkyp-mBO-15">
          <mxGeometry relative="1" as="geometry" />
        </mxCell>
        <mxCell id="5YFI_IbYlx-bdkyp-mBO-3" value="" style="shape=cylinder3;whiteSpace=wrap;html=1;boundedLbl=1;backgroundOutline=1;size=15;" vertex="1" parent="1">
          <mxGeometry x="70" y="210" width="60" height="80" as="geometry" />
        </mxCell>
        <mxCell id="5YFI_IbYlx-bdkyp-mBO-14" style="edgeStyle=orthogonalEdgeStyle;rounded=0;orthogonalLoop=1;jettySize=auto;html=1;exitX=1;exitY=1;exitDx=0;exitDy=-15;exitPerimeter=0;entryX=0;entryY=0.5;entryDx=0;entryDy=0;fontSize=15;" edge="1" parent="1" source="5YFI_IbYlx-bdkyp-mBO-4" target="5YFI_IbYlx-bdkyp-mBO-11">
          <mxGeometry relative="1" as="geometry" />
        </mxCell>
        <mxCell id="5YFI_IbYlx-bdkyp-mBO-4" value="" style="shape=cylinder3;whiteSpace=wrap;html=1;boundedLbl=1;backgroundOutline=1;size=15;" vertex="1" parent="1">
          <mxGeometry x="70" y="50" width="60" height="80" as="geometry" />
        </mxCell>
        <mxCell id="5YFI_IbYlx-bdkyp-mBO-5" value="Bitacora MongoDB" style="text;html=1;align=center;verticalAlign=middle;resizable=0;points=[];autosize=1;strokeColor=none;fontSize=15;" vertex="1" parent="1">
          <mxGeometry x="20" y="20" width="140" height="20" as="geometry" />
        </mxCell>
        <mxCell id="5YFI_IbYlx-bdkyp-mBO-8" value="SQLServer" style="text;html=1;align=center;verticalAlign=middle;resizable=0;points=[];autosize=1;strokeColor=none;fontSize=15;" vertex="1" parent="1">
          <mxGeometry x="55" y="170" width="90" height="20" as="geometry" />
        </mxCell>
        <mxCell id="5YFI_IbYlx-bdkyp-mBO-10" value="DAL" style="text;html=1;align=center;verticalAlign=middle;resizable=0;points=[];autosize=1;strokeColor=none;fontSize=15;" vertex="1" parent="1">
          <mxGeometry x="359" y="20" width="40" height="20" as="geometry" />
        </mxCell>
        <mxCell id="5YFI_IbYlx-bdkyp-mBO-13" style="edgeStyle=orthogonalEdgeStyle;rounded=0;orthogonalLoop=1;jettySize=auto;html=1;exitX=0;exitY=0.25;exitDx=0;exitDy=0;entryX=1;entryY=0.5;entryDx=0;entryDy=0;entryPerimeter=0;fontSize=15;" edge="1" parent="1" source="5YFI_IbYlx-bdkyp-mBO-11" target="5YFI_IbYlx-bdkyp-mBO-4">
          <mxGeometry relative="1" as="geometry" />
        </mxCell>
        <mxCell id="5YFI_IbYlx-bdkyp-mBO-11" value="" style="rounded=0;whiteSpace=wrap;html=1;fontSize=15;fillColor=#dae8fc;strokeColor=#6c8ebf;" vertex="1" parent="1">
          <mxGeometry x="300" y="50" width="160" height="130" as="geometry" />
        </mxCell>
        <mxCell id="5YFI_IbYlx-bdkyp-mBO-12" value="Registro de acciones" style="text;html=1;align=center;verticalAlign=middle;resizable=0;points=[];autosize=1;strokeColor=none;fontSize=15;" vertex="1" parent="1">
          <mxGeometry x="305" y="160" width="160" height="20" as="geometry" />
        </mxCell>
        <mxCell id="5YFI_IbYlx-bdkyp-mBO-18" style="edgeStyle=orthogonalEdgeStyle;rounded=0;orthogonalLoop=1;jettySize=auto;html=1;exitX=0;exitY=0.25;exitDx=0;exitDy=0;entryX=1;entryY=0;entryDx=0;entryDy=27.5;entryPerimeter=0;fontSize=15;" edge="1" parent="1" source="5YFI_IbYlx-bdkyp-mBO-15" target="5YFI_IbYlx-bdkyp-mBO-3">
          <mxGeometry relative="1" as="geometry" />
        </mxCell>
        <mxCell id="5YFI_IbYlx-bdkyp-mBO-28" style="edgeStyle=orthogonalEdgeStyle;rounded=0;orthogonalLoop=1;jettySize=auto;html=1;exitX=0.5;exitY=0;exitDx=0;exitDy=0;fontSize=15;entryX=0.461;entryY=1.252;entryDx=0;entryDy=0;entryPerimeter=0;" edge="1" parent="1" source="5YFI_IbYlx-bdkyp-mBO-15" target="5YFI_IbYlx-bdkyp-mBO-12">
          <mxGeometry relative="1" as="geometry">
            <mxPoint x="379" y="195" as="targetPoint" />
          </mxGeometry>
        </mxCell>
        <mxCell id="5YFI_IbYlx-bdkyp-mBO-15" value="" style="rounded=0;whiteSpace=wrap;html=1;fontSize=15;fillColor=#d5e8d4;strokeColor=#82b366;" vertex="1" parent="1">
          <mxGeometry x="298" y="220" width="162" height="90" as="geometry" />
        </mxCell>
        <mxCell id="5YFI_IbYlx-bdkyp-mBO-16" value="CRUDS" style="text;html=1;align=center;verticalAlign=middle;resizable=0;points=[];autosize=1;strokeColor=none;fontSize=15;" vertex="1" parent="1">
          <mxGeometry x="290" y="280" width="70" height="20" as="geometry" />
        </mxCell>
        <mxCell id="5YFI_IbYlx-bdkyp-mBO-23" style="edgeStyle=orthogonalEdgeStyle;rounded=0;orthogonalLoop=1;jettySize=auto;html=1;exitX=-0.01;exitY=0.549;exitDx=0;exitDy=0;fontSize=15;exitPerimeter=0;" edge="1" parent="1" source="5YFI_IbYlx-bdkyp-mBO-21">
          <mxGeometry relative="1" as="geometry">
            <mxPoint x="470" y="200" as="targetPoint" />
          </mxGeometry>
        </mxCell>
        <mxCell id="5YFI_IbYlx-bdkyp-mBO-21" value="" style="rounded=0;whiteSpace=wrap;html=1;fontSize=15;" vertex="1" parent="1">
          <mxGeometry x="540" y="40" width="120" height="280" as="geometry" />
        </mxCell>
        <mxCell id="5YFI_IbYlx-bdkyp-mBO-22" value="LN" style="text;html=1;align=center;verticalAlign=middle;resizable=0;points=[];autosize=1;strokeColor=none;fontSize=15;" vertex="1" parent="1">
          <mxGeometry x="585" y="20" width="30" height="20" as="geometry" />
        </mxCell>
        <mxCell id="5YFI_IbYlx-bdkyp-mBO-25" value="" style="rounded=0;whiteSpace=wrap;html=1;fontSize=15;" vertex="1" parent="1">
          <mxGeometry x="294" y="360" width="366" height="60" as="geometry" />
        </mxCell>
        <mxCell id="5YFI_IbYlx-bdkyp-mBO-26" value="Entidades" style="text;html=1;align=center;verticalAlign=middle;resizable=0;points=[];autosize=1;strokeColor=none;fontSize=15;" vertex="1" parent="1">
          <mxGeometry x="437" y="340" width="80" height="20" as="geometry" />
        </mxCell>
      </root>
    </mxGraphModel>
  </diagram>
</mxfile>
